<svg viewBox="0 0 128 128" xmlns="http://www.w3.org/2000/svg"><rect fill="#f0f7ff" height="108.727" rx="30" width="108.727" x="9.636" y="9.636" style="fill: rgb(255, 255, 255);"></rect><g><path d="m102.65 99h-77.3l9.17-26.49c20.97-16.41 25.67 31.58 61.7 7.9z" fill="#9cdd04"></path><path d="m96.22 80.41c-36.03 23.68-40.73-24.31-61.7-7.9l5.04-14.56h48.88z" fill="#78b75b"></path><path d="m73.51 27.26a13.313 13.313 0 0 0 -13.32 13.31c0 7.36 13.32 31.94 13.32 31.94s13.31-24.58 13.31-31.94a13.311 13.311 0 0 0 -13.31-13.31zm0 15.88a4.655 4.655 0 1 1 4.65-4.66 4.665 4.665 0 0 1 -4.65 4.66z" fill="#ff651b"></path></g></svg>